<mxfile host="65bd71144e">
    <diagram id="K4GlcYsA9RCrxZtkwAcW" name="Page-1">
        <mxGraphModel dx="2309" dy="2200" grid="1" gridSize="10" guides="1" tooltips="1" connect="1" arrows="1" fold="1" page="1" pageScale="1" pageWidth="850" pageHeight="1100" math="0" shadow="0">
            <root>
                <mxCell id="0"/>
                <mxCell id="1" parent="0"/>
                <mxCell id="8" style="edgeStyle=none;html=1;exitX=1;exitY=0.5;exitDx=0;exitDy=0;fontSize=20;" parent="1" source="4" target="7" edge="1">
                    <mxGeometry relative="1" as="geometry">
                        <Array as="points">
                            <mxPoint x="1213" y="-80"/>
                        </Array>
                    </mxGeometry>
                </mxCell>
                <mxCell id="18" style="edgeStyle=none;html=1;entryX=0.5;entryY=0;entryDx=0;entryDy=0;fontSize=19;exitX=0;exitY=0.5;exitDx=0;exitDy=0;" parent="1" source="4" target="16" edge="1">
                    <mxGeometry relative="1" as="geometry">
                        <mxPoint x="510" y="50" as="sourcePoint"/>
                        <Array as="points">
                            <mxPoint x="615" y="-80"/>
                        </Array>
                    </mxGeometry>
                </mxCell>
                <mxCell id="4" value="Menú" style="swimlane;whiteSpace=wrap;html=1;" parent="1" vertex="1">
                    <mxGeometry x="740" y="-180" width="210" height="200" as="geometry"/>
                </mxCell>
                <mxCell id="6" value="-Topbar&lt;br style=&quot;font-size: 32px;&quot;&gt;-Sidebar" style="text;html=1;align=center;verticalAlign=middle;resizable=0;points=[];autosize=1;strokeColor=none;fillColor=none;fontSize=32;" parent="4" vertex="1">
                    <mxGeometry x="30" y="55" width="140" height="90" as="geometry"/>
                </mxCell>
                <mxCell id="27" style="edgeStyle=none;html=1;exitX=0.5;exitY=1;exitDx=0;exitDy=0;entryX=0.5;entryY=0;entryDx=0;entryDy=0;fontSize=19;" parent="1" source="7" edge="1" target="26">
                    <mxGeometry relative="1" as="geometry">
                        <mxPoint x="990" y="360" as="targetPoint"/>
                        <Array as="points">
                            <mxPoint x="1210" y="300"/>
                            <mxPoint x="970" y="300"/>
                        </Array>
                    </mxGeometry>
                </mxCell>
                <mxCell id="29" style="edgeStyle=none;html=1;exitX=0.5;exitY=1;exitDx=0;exitDy=0;fontSize=19;" parent="1" source="7" target="28" edge="1">
                    <mxGeometry relative="1" as="geometry">
                        <mxPoint x="1290" y="280.0000000000002" as="targetPoint"/>
                        <Array as="points">
                            <mxPoint x="1213" y="300"/>
                            <mxPoint x="1300" y="300"/>
                        </Array>
                    </mxGeometry>
                </mxCell>
                <mxCell id="50" style="edgeStyle=none;html=1;exitX=0.5;exitY=1;exitDx=0;exitDy=0;entryX=0.5;entryY=0;entryDx=0;entryDy=0;" parent="1" source="7" target="48" edge="1">
                    <mxGeometry relative="1" as="geometry">
                        <Array as="points">
                            <mxPoint x="1213" y="300"/>
                            <mxPoint x="1570" y="300"/>
                        </Array>
                    </mxGeometry>
                </mxCell>
                <mxCell id="53" style="edgeStyle=none;html=1;exitX=0.5;exitY=1;exitDx=0;exitDy=0;" parent="1" source="7" target="51" edge="1">
                    <mxGeometry relative="1" as="geometry">
                        <Array as="points">
                            <mxPoint x="1213" y="300"/>
                            <mxPoint x="1820" y="300"/>
                        </Array>
                    </mxGeometry>
                </mxCell>
                <mxCell id="7" value="Sidebar" style="swimlane;whiteSpace=wrap;html=1;fontSize=20;" parent="1" vertex="1">
                    <mxGeometry x="1112.5" y="60" width="200" height="200" as="geometry"/>
                </mxCell>
                <mxCell id="9" value="-Logo de empresa&lt;br&gt;-Dashboard&lt;br&gt;-Clientes&lt;br&gt;-Facturas" style="text;html=1;align=center;verticalAlign=middle;resizable=0;points=[];autosize=1;strokeColor=none;fillColor=none;fontSize=20;" parent="7" vertex="1">
                    <mxGeometry x="5" y="45" width="190" height="110" as="geometry"/>
                </mxCell>
                <mxCell id="25" style="edgeStyle=none;html=1;exitX=0.5;exitY=1;exitDx=0;exitDy=0;entryX=0.5;entryY=0;entryDx=0;entryDy=0;fontSize=19;" parent="1" source="16" target="23" edge="1">
                    <mxGeometry relative="1" as="geometry"/>
                </mxCell>
                <mxCell id="16" value="Topbar" style="swimlane;whiteSpace=wrap;html=1;fontSize=19;" parent="1" vertex="1">
                    <mxGeometry x="512.5" y="105" width="205" height="200" as="geometry"/>
                </mxCell>
                <mxCell id="17" value="-Foto de perfil&amp;nbsp;&lt;br&gt;-Nombre de usuario&lt;br&gt;-Menú desplegable" style="text;html=1;align=center;verticalAlign=middle;resizable=0;points=[];autosize=1;strokeColor=none;fillColor=none;fontSize=19;" parent="16" vertex="1">
                    <mxGeometry x="7.5" y="60" width="190" height="80" as="geometry"/>
                </mxCell>
                <mxCell id="23" value="Meú desplegable" style="swimlane;whiteSpace=wrap;html=1;fontSize=19;" parent="1" vertex="1">
                    <mxGeometry x="525" y="420" width="185" height="165" as="geometry"/>
                </mxCell>
                <mxCell id="24" value="-Logout&lt;br&gt;-Mensaje interno&amp;nbsp;&lt;br&gt;-Calendario&lt;br&gt;-Correo electronico&lt;br&gt;-Configuración" style="text;html=1;align=center;verticalAlign=middle;resizable=0;points=[];autosize=1;strokeColor=none;fillColor=none;fontSize=19;" parent="23" vertex="1">
                    <mxGeometry x="-5" y="35" width="190" height="130" as="geometry"/>
                </mxCell>
                <mxCell id="26" value="Dashboard" style="swimlane;whiteSpace=wrap;html=1;fontSize=19;" parent="1" vertex="1">
                    <mxGeometry x="870" y="350" width="200" height="200" as="geometry"/>
                </mxCell>
                <mxCell id="30" value="-Clientes nuevos&lt;br&gt;-Clientes actuales&lt;br&gt;-Clientes totales&amp;nbsp;&lt;br&gt;-Tasa de retención" style="text;html=1;align=center;verticalAlign=middle;resizable=0;points=[];autosize=1;strokeColor=none;fillColor=none;fontSize=19;" parent="26" vertex="1">
                    <mxGeometry x="10" y="50" width="180" height="100" as="geometry"/>
                </mxCell>
                <mxCell id="28" value="Clientes" style="swimlane;whiteSpace=wrap;html=1;fontSize=19;" parent="1" vertex="1">
                    <mxGeometry x="1180" y="360" width="240" height="200" as="geometry"/>
                </mxCell>
                <mxCell id="31" value="-ID&lt;br&gt;-Nombre&lt;br&gt;-Email&lt;br&gt;-Estatus" style="text;html=1;align=center;verticalAlign=middle;resizable=0;points=[];autosize=1;strokeColor=none;fillColor=none;fontSize=19;" parent="28" vertex="1">
                    <mxGeometry x="70" y="65" width="100" height="100" as="geometry"/>
                </mxCell>
                <mxCell id="41" style="edgeStyle=none;html=1;fontSize=19;entryX=0.537;entryY=0;entryDx=0;entryDy=0;entryPerimeter=0;" parent="1" target="37" edge="1">
                    <mxGeometry relative="1" as="geometry">
                        <mxPoint x="627.5" y="-370" as="targetPoint"/>
                        <mxPoint x="850" y="-500" as="sourcePoint"/>
                    </mxGeometry>
                </mxCell>
                <mxCell id="33" value="Autenticación" style="swimlane;whiteSpace=wrap;html=1;fontSize=19;" parent="1" vertex="1">
                    <mxGeometry x="705" y="-700" width="290" height="190" as="geometry"/>
                </mxCell>
                <mxCell id="35" value="Se logró con ayuda de&amp;nbsp;Auth0" style="text;html=1;align=center;verticalAlign=middle;resizable=0;points=[];autosize=1;strokeColor=none;fillColor=none;fontSize=19;" parent="33" vertex="1">
                    <mxGeometry x="12.5" y="80" width="270" height="40" as="geometry"/>
                </mxCell>
                <mxCell id="42" style="edgeStyle=none;html=1;fontSize=19;" parent="1" edge="1">
                    <mxGeometry relative="1" as="geometry">
                        <mxPoint x="850" y="-250" as="sourcePoint"/>
                        <mxPoint x="850" y="-190" as="targetPoint"/>
                    </mxGeometry>
                </mxCell>
                <mxCell id="37" value="Login" style="swimlane;whiteSpace=wrap;html=1;fontSize=19;" parent="1" vertex="1">
                    <mxGeometry x="740" y="-450" width="205" height="200" as="geometry"/>
                </mxCell>
                <mxCell id="39" value="Correo electronico &lt;br&gt;de la empresa&lt;br&gt;Correo de google" style="text;html=1;align=center;verticalAlign=middle;resizable=0;points=[];autosize=1;strokeColor=none;fillColor=none;fontSize=19;" parent="37" vertex="1">
                    <mxGeometry x="12.5" y="70" width="180" height="80" as="geometry"/>
                </mxCell>
                <mxCell id="48" value="Facturas" style="swimlane;whiteSpace=wrap;html=1;fontSize=19;" parent="1" vertex="1">
                    <mxGeometry x="1470" y="360" width="200" height="200" as="geometry"/>
                </mxCell>
                <mxCell id="49" value="-Formulario de&lt;br&gt;Persona fisica y&lt;br&gt;Persona moral" style="text;html=1;align=center;verticalAlign=middle;resizable=0;points=[];autosize=1;strokeColor=none;fillColor=none;fontSize=19;" parent="48" vertex="1">
                    <mxGeometry x="20" y="60" width="160" height="80" as="geometry"/>
                </mxCell>
                <mxCell id="51" value="Agenda tu cita" style="swimlane;whiteSpace=wrap;html=1;fontSize=19;" parent="1" vertex="1">
                    <mxGeometry x="1710" y="360" width="215" height="200" as="geometry"/>
                </mxCell>
                <mxCell id="52" value="-Seleccionar tipo de cita&lt;br&gt;-Seleccione sucursal&lt;br&gt;-Fecha de cita&amp;nbsp;&lt;br&gt;-Confirmar" style="text;html=1;align=center;verticalAlign=middle;resizable=0;points=[];autosize=1;strokeColor=none;fillColor=none;fontSize=19;" parent="51" vertex="1">
                    <mxGeometry x="-15" y="50" width="230" height="100" as="geometry"/>
                </mxCell>
                <mxCell id="54" value="Catálogo" style="swimlane;whiteSpace=wrap;html=1;fontSize=19;" parent="1" vertex="1">
                    <mxGeometry x="1980" y="360" width="200" height="200" as="geometry"/>
                </mxCell>
                <mxCell id="55" value="-Diseño&lt;br&gt;-Foto del diseño&lt;br&gt;-Precio&lt;br&gt;-Aplicación" style="text;html=1;align=center;verticalAlign=middle;resizable=0;points=[];autosize=1;strokeColor=none;fillColor=none;fontSize=19;" parent="54" vertex="1">
                    <mxGeometry x="20" y="50" width="160" height="100" as="geometry"/>
                </mxCell>
                <mxCell id="56" style="edgeStyle=none;html=1;exitX=0.5;exitY=1;exitDx=0;exitDy=0;entryX=0.5;entryY=0;entryDx=0;entryDy=0;" parent="1" source="7" target="54" edge="1">
                    <mxGeometry relative="1" as="geometry">
                        <Array as="points">
                            <mxPoint x="1213" y="300"/>
                            <mxPoint x="2080" y="300"/>
                        </Array>
                    </mxGeometry>
                </mxCell>
            </root>
        </mxGraphModel>
    </diagram>
</mxfile>